<svg xmlns="http://www.w3.org/2000/svg" version="1.1" xmlns:xlink="http://www.w3.org/1999/xlink" xmlns:svgjs="http://svgjs.dev/svgjs" width="1000" height="1000" viewBox="0 0 1000 1000"><g transform="matrix(1,0,0,1,-0.14221556886212738,-0.14221556886229791)"><svg viewBox="0 0 334 334" data-background-color="#ffffff" preserveAspectRatio="xMidYMid meet" height="1000" width="1000" xmlns="http://www.w3.org/2000/svg" xmlns:xlink="http://www.w3.org/1999/xlink"><g id="tight-bounds" transform="matrix(1,0,0,1,0.04749999999998522,0.04750000000001364)"><svg viewBox="0 0 333.90454557049503 333.90454557049503" height="333.90454557049503" width="333.90454557049503"><g><svg></svg></g><g><svg viewBox="0 0 333.90454557049503 333.90454557049503" height="333.90454557049503" width="333.90454557049503"><g><path d="M0 166.952c0-92.205 74.747-166.952 166.952-166.952 92.205 0 166.952 74.747 166.953 166.952 0 92.205-74.747 166.952-166.953 166.953-92.205 0-166.952-74.747-166.952-166.953zM166.952 316.63c82.665 0 149.677-67.013 149.678-149.678 0-82.665-67.013-149.677-149.678-149.677-82.665 0-149.677 67.013-149.677 149.677 0 82.665 67.013 149.677 149.677 149.678z" data-fill-palette-color="tertiary" fill="#ee2626" stroke="transparent"></path><ellipse rx="160.27418187383762" ry="160.27418187383762" cx="166.95227278524752" cy="166.95227278524752" fill="#ee2626" stroke="transparent" stroke-width="0" fill-opacity="1" data-fill-palette-color="tertiary"></ellipse></g><g transform="matrix(1,0,0,1,75.54528478170394,71.17305217166897)"><svg viewBox="0 0 182.81397600708715 191.5584412271571" height="191.5584412271571" width="182.81397600708715"><g><svg viewBox="0 0 182.81397600708715 191.5584412271571" height="191.5584412271571" width="182.81397600708715"><g><svg viewBox="0 0 182.81397600708715 191.5584412271571" height="191.5584412271571" width="182.81397600708715"><g><svg viewBox="0 0 182.81397600708715 191.5584412271571" height="191.5584412271571" width="182.81397600708715"><g id="textblocktransform"><svg viewBox="0 0 182.81397600708715 191.5584412271571" height="191.5584412271571" width="182.81397600708715" id="textblock"><g><svg viewBox="0 0 182.81397600708715 191.5584412271571" height="191.5584412271571" width="182.81397600708715"><g transform="matrix(1,0,0,1,0,0)"><svg width="182.81397600708715" viewBox="3.75 -35.04999923706055 33.45000076293945 35.04999923706055" height="191.5584412271571" data-palette-color="#ffffff"><path d="M6.9-35.05L6.9-35.05Q7.6-35.05 8.38-34.68 9.15-34.3 9.55-33.7L9.55-33.7 21.7-15 19.2-15.1 31.65-33.7Q32.6-35.05 34.1-35.05L34.1-35.05Q35.3-35.05 36.25-34.2 37.2-33.35 37.2-32L37.2-32 37.2-3.05Q37.2-1.75 36.35-0.88 35.5 0 34.1 0L34.1 0Q32.7 0 31.83-0.88 30.95-1.75 30.95-3.05L30.95-3.05 30.95-26.6 32.9-26.15 22.7-10.6Q22.25-10.05 21.58-9.65 20.9-9.25 20.2-9.3L20.2-9.3Q19.55-9.25 18.88-9.65 18.2-10.05 17.75-10.6L17.75-10.6 8.2-25.7 9.5-28.35 9.5-3.05Q9.5-1.75 8.7-0.88 7.9 0 6.6 0L6.6 0Q5.35 0 4.55-0.88 3.75-1.75 3.75-3.05L3.75-3.05 3.75-32Q3.75-33.25 4.67-34.15 5.6-35.05 6.9-35.05Z" opacity="1" transform="matrix(1,0,0,1,0,0)" fill="#ffffff" class="undefined-text-0" data-fill-palette-color="quaternary" id="text-0"></path></svg></g></svg></g></svg></g></svg></g><g></g></svg></g></svg></g></svg></g></svg></g><defs></defs></svg><rect width="333.90454557049503" height="333.90454557049503" fill="none" stroke="none" visibility="hidden"></rect></g></svg></g></svg>